<?xml version="1.0" encoding="UTF-8" standalone="no" ?>
<!DOCTYPE svg PUBLIC "-//W3C//DTD SVG 1.1//EN" "http://www.w3.org/Graphics/SVG/1.1/DTD/svg11.dtd">
<svg xmlns="http://www.w3.org/2000/svg" xmlns:xlink="http://www.w3.org/1999/xlink" version="1.1" width="400" height="200" viewBox="0 0 1280 1024" xml:space="preserve">
<desc>Created with Fabric.js 3.1.0</desc>
<defs>
</defs>
<g transform="matrix(1.9692780337941629 0 0 1.9692780337941629 640.0153846153846 512.012312418764)" id="background-logo"  >
<rect style="stroke: none; stroke-width: 1; stroke-dasharray: none; stroke-linecap: butt; stroke-dashoffset: 0; stroke-linejoin: miter; stroke-miterlimit: 4; fill: rgb(255,255,255); fill-rule: nonzero; opacity: 1;"  paint-order="stroke"  x="-325" y="-260" rx="0" ry="0" width="650" height="520" />
</g>
<g transform="matrix(1.9692780337941629 0 0 1.9692780337941629 640.0153846153846 395.73303233157293)" style="" id="logo-logo"  >
	<g transform="matrix(1.2485131559256284 0 0 1.2485131559256284 0 0)" style=""  >
	<g transform="matrix(1 0 0 1 0 0)"  >
<polygon style="stroke: none; stroke-width: 1; stroke-dasharray: none; stroke-linecap: butt; stroke-dashoffset: 0; stroke-linejoin: miter; stroke-miterlimit: 4; fill: rgb(216,191,216); fill-rule: nonzero; opacity: 1;"  paint-order="stroke"  points="100,100 0,100 0,95.12 95.12,95.12 95.12,-95.12 -95.12,-95.12 -95.12,0 -100,0 -100,-100 100,-100 100,100 " />
</g>
</g>
</g>
<g transform="matrix(1.9692780337941629 0 0 1.9692780337941629 644.5217427723067 768.9521489435729)" id="text-logo-path"  >
<path style="stroke: rgb(255,255,255); stroke-width: 0; stroke-dasharray: none; stroke-linecap: butt; stroke-dashoffset: 0; stroke-linejoin: miter; stroke-miterlimit: 10; fill: rgb(216,191,216); fill-rule: nonzero; opacity: 1;"  paint-order="stroke"  transform=" translate(-156.12, 37.855000000000004)" d="M 14.57 0 L 8.18 0 L 8.18 -59.14 L 21.95 -59.14 Q 29.06 -59.14 32.73 -55.79 Q 36.39 -52.43 36.39 -46.39 L 36.39 -46.39 L 36.39 -30.93 Q 36.39 -24.84 32.75 -21.53 Q 29.1 -18.22 21.95 -18.22 L 21.95 -18.22 L 14.57 -18.22 L 14.57 0 Z M 14.57 -53.68 L 14.57 -23.64 L 21.95 -23.64 Q 30.04 -23.64 30.04 -30.93 L 30.04 -30.93 L 30.04 -46.39 Q 30.04 -49.85 27.95 -51.77 Q 25.86 -53.68 21.95 -53.68 L 21.95 -53.68 L 14.57 -53.68 Z M 49.59 -11.38 L 49.59 -11.38 L 49.59 -47.77 Q 49.59 -53.85 53.45 -57.19 Q 57.32 -60.52 65.01 -60.52 Q 72.69 -60.52 76.6 -57.19 Q 80.51 -53.85 80.51 -47.77 L 80.51 -47.77 L 80.51 -11.38 Q 80.51 -5.29 76.65 -1.96 Q 72.78 1.38 65.1 1.38 Q 57.41 1.38 53.5 -1.96 Q 49.59 -5.29 49.59 -11.38 Z M 55.94 -47.77 L 55.94 -11.38 Q 55.94 -4.09 65.05 -4.09 Q 74.16 -4.09 74.16 -11.38 L 74.16 -11.38 L 74.16 -47.77 Q 74.16 -55.05 65.05 -55.05 Q 55.94 -55.05 55.94 -47.77 L 55.94 -47.77 Z M 103.8 0 L 97.44 0 L 97.44 -59.14 L 103.8 -59.14 L 103.8 -34.04 L 119.66 -59.14 L 126.72 -59.14 L 110.64 -33.68 L 127.84 0 L 120.81 0 L 106.82 -27.59 L 103.8 -22.75 L 103.8 0 Z M 137.34 -11.38 L 137.34 -11.38 L 137.34 -47.77 Q 137.34 -53.85 141.08 -57.19 Q 144.81 -60.52 152.27 -60.52 Q 159.74 -60.52 163.56 -57.19 Q 167.38 -53.85 167.38 -47.77 L 167.38 -47.77 L 167.38 -27.77 L 143.7 -27.77 L 143.7 -11.38 Q 143.7 -4.09 152.36 -4.09 Q 161.03 -4.09 161.03 -11.38 L 161.03 -11.38 L 161.03 -16.4 L 167.38 -16.4 L 167.38 -11.38 Q 167.38 -5.29 163.65 -1.96 Q 159.92 1.38 152.45 1.38 Q 144.99 1.38 141.17 -1.96 Q 137.34 -5.29 137.34 -11.38 Z M 143.7 -47.77 L 143.7 -33.24 L 161.03 -33.24 L 161.03 -47.77 Q 161.03 -55.05 152.36 -55.05 Q 143.7 -55.05 143.7 -47.77 L 143.7 -47.77 Z M 149.43 -63.54 L 147.08 -65.9 L 158.27 -77.09 L 163.2 -72.16 L 159.74 -68.69 L 149.43 -63.54 Z M 198.88 0 L 184.22 0 L 184.22 -59.14 L 198.88 -59.14 Q 205.99 -59.14 209.66 -55.79 Q 213.33 -52.43 213.33 -46.39 L 213.33 -46.39 L 213.33 -12.75 Q 213.33 -6.67 209.7 -3.33 Q 206.08 0 198.88 0 L 198.88 0 Z M 190.58 -53.68 L 190.58 -5.47 L 198.88 -5.47 Q 206.97 -5.47 206.97 -12.75 L 206.97 -12.75 L 206.97 -46.39 Q 206.97 -49.85 204.88 -51.77 Q 202.79 -53.68 198.88 -53.68 L 198.88 -53.68 L 190.58 -53.68 Z M 228.79 -11.38 L 228.79 -11.38 L 228.79 -47.77 Q 228.79 -53.85 232.52 -57.19 Q 236.25 -60.52 243.72 -60.52 Q 251.18 -60.52 255 -57.19 Q 258.83 -53.85 258.83 -47.77 L 258.83 -47.77 L 258.83 -27.77 L 235.14 -27.77 L 235.14 -11.38 Q 235.14 -4.09 243.81 -4.09 Q 252.47 -4.09 252.47 -11.38 L 252.47 -11.38 L 252.47 -16.4 L 258.83 -16.4 L 258.83 -11.38 Q 258.83 -5.29 255.09 -1.96 Q 251.36 1.38 243.9 1.38 Q 236.43 1.38 232.61 -1.96 Q 228.79 -5.29 228.79 -11.38 Z M 235.14 -47.77 L 235.14 -33.24 L 252.47 -33.24 L 252.47 -47.77 Q 252.47 -55.05 243.81 -55.05 Q 235.14 -55.05 235.14 -47.77 L 235.14 -47.77 Z M 276.82 0 L 270.2 0 L 283.84 -30.48 L 271.09 -59.14 L 277.75 -59.14 L 287.49 -37.15 L 297.39 -59.14 L 304.06 -59.14 L 290.86 -29.68 L 304.06 0 L 297.39 0 L 287.13 -23.02 L 276.82 0 Z" stroke-linecap="round" />
</g>
<g transform="matrix(1.9692780337941629 0 0 1.9692780337941629 646.9660322068305 392.66512444657326)" id="tagline-3a78d944-c0db-44d4-8ad5-60158c925687-logo-path"  >
<path style="stroke: rgb(255,255,255); stroke-width: 0; stroke-dasharray: none; stroke-linecap: butt; stroke-dashoffset: 0; stroke-linejoin: miter; stroke-miterlimit: 4; fill: rgb(216,191,216); fill-rule: nonzero; opacity: 1;"  paint-order="stroke"  transform=" translate(-58.035000000000004, 77.015)" d="M 37.96 0 L 21.29 0 L 21.29 -154.03 L 57.17 -154.03 Q 75.68 -154.03 85.23 -145.29 Q 94.78 -136.55 94.78 -120.81 L 94.78 -120.81 L 94.78 -80.54 Q 94.78 -64.69 85.29 -56.07 Q 75.8 -47.45 57.17 -47.45 L 57.17 -47.45 L 37.96 -47.45 L 37.96 0 Z M 37.96 -139.79 L 37.96 -61.56 L 57.17 -61.56 Q 78.23 -61.56 78.23 -80.54 L 78.23 -80.54 L 78.23 -120.81 Q 78.23 -129.84 72.79 -134.82 Q 67.35 -139.79 57.17 -139.79 L 57.17 -139.79 L 37.96 -139.79 Z" stroke-linecap="round" />
</g>
</svg>
